<svg xmlns="http://www.w3.org/2000/svg" width="24" height="24" viewBox="0 0 24 24" fill="none" id="icon">
  <path d="M10.5673 2.9751C10.1766 3.29469 9.91681 3.74662 9.83729 4.2451C9.80457 4.39887 9.73605 4.54277 9.63729 4.6651C9.54275 4.7922 9.41936 4.89502 9.27729 4.9651L8.48729 5.3451C7.85397 5.65632 7.29213 6.09558 6.83729 6.6351C5.43729 8.3051 5.43729 9.0551 5.43729 11.9051C5.43729 13.1951 4.06729 14.3651 3.70729 15.5251C3.48729 16.2151 3.36729 17.7751 5.18729 17.7751H18.7673C19.0333 17.7867 19.2979 17.7317 19.5373 17.6151C19.7757 17.4963 19.9817 17.3213 20.1373 17.1051C20.2853 16.8871 20.3773 16.6361 20.4073 16.3751C20.4299 16.1083 20.3852 15.8401 20.2773 15.5951C19.9173 14.5051 18.4873 13.2051 18.4873 11.9151V9.7851" stroke="#0B1220" stroke-width="1.5" stroke-linecap="round" stroke-linejoin="round"/>
  <path d="M15.2255 17.7751C15.2285 18.2021 15.1505 18.6261 14.9955 19.0251C14.8279 19.4201 14.587 19.7798 14.2855 20.0851C13.9807 20.3909 13.6171 20.6318 13.2167 20.7934C12.8162 20.9549 12.3872 21.0338 11.9555 21.0251C11.523 21.0278 11.0943 20.9428 10.6955 20.7751C9.89599 20.4405 9.26019 19.8047 8.92554 19.0051C8.76868 18.6143 8.69052 18.1963 8.69554 17.7751" stroke="#0B1220" stroke-width="1.5" stroke-linecap="round" stroke-linejoin="round"/>
  <path d="M15.2266 7.9751C16.6073 7.9751 17.7266 6.85581 17.7266 5.4751C17.7266 4.09439 16.6073 2.9751 15.2266 2.9751C13.8459 2.9751 12.7266 4.09439 12.7266 5.4751C12.7266 6.85581 13.8459 7.9751 15.2266 7.9751Z" stroke="#0B1220" stroke-width="1.5"/>
</svg>