<svg xmlns="http://www.w3.org/2000/svg" width="20" height="20" viewBox="0 0 20 20" fill="none">
  <path d="M10.0003 18.3327C14.6027 18.3327 18.3337 14.6017 18.3337 9.99935C18.3337 5.39698 14.6027 1.66602 10.0003 1.66602C5.39795 1.66602 1.66699 5.39698 1.66699 9.99935C1.66699 14.6017 5.39795 18.3327 10.0003 18.3327Z" stroke="white" stroke-width="1.25" stroke-linecap="round" stroke-linejoin="round"/>
  <path d="M10 13.3333V10" stroke="white" stroke-width="1.25" stroke-linecap="round" stroke-linejoin="round"/>
  <path d="M9.89616 6.87435H10.0003M9.79199 6.87435C9.79199 6.75929 9.88524 6.66602 10.0003 6.66602C10.1154 6.66602 10.2087 6.75929 10.2087 6.87435C10.2087 6.98941 10.1154 7.08268 10.0003 7.08268C9.88524 7.08268 9.79199 6.98941 9.79199 6.87435Z" stroke="white" stroke-width="1.25" stroke-linecap="round" stroke-linejoin="round"/>
</svg>