<svg xmlns="http://www.w3.org/2000/svg" width="20" height="20" viewBox="0 0 20 20" fill="none">
  <path d="M1.66602 5V15" stroke="white" stroke-opacity="0.8" stroke-width="1.04167" stroke-linecap="round" stroke-linejoin="round"/>
  <path d="M14.1673 2.5H12.5007C10.5365 2.5 9.5544 2.5 8.94415 3.11019C8.33398 3.72039 8.33398 4.70248 8.33398 6.66667V13.3333C8.33398 15.2975 8.33398 16.2796 8.94415 16.8898C9.5544 17.5 10.5365 17.5 12.5007 17.5H14.1673C16.1315 17.5 17.1136 17.5 17.7238 16.8898C18.334 16.2796 18.334 15.2975 18.334 13.3333V6.66667C18.334 4.70248 18.334 3.72039 17.7238 3.11019C17.1136 2.5 16.1315 2.5 14.1673 2.5Z" stroke="white" stroke-opacity="0.8" stroke-width="1.04167" stroke-linecap="round" stroke-linejoin="round"/>
  <path d="M5 3.33398V16.6673" stroke="white" stroke-opacity="0.8" stroke-width="1.04167" stroke-linecap="round" stroke-linejoin="round"/>
</svg>