<svg xmlns="http://www.w3.org/2000/svg" width="16" height="16" viewBox="0 0 16 16" fill="none">
  <path d="M8.00065 14.6666C11.6825 14.6666 14.6673 11.6818 14.6673 7.99992C14.6673 4.31802 11.6825 1.33325 8.00065 1.33325C4.31875 1.33325 1.33398 4.31802 1.33398 7.99992C1.33398 11.6818 4.31875 14.6666 8.00065 14.6666Z" stroke="#A5A5AB" stroke-linecap="round" stroke-linejoin="round"/>
  <path d="M6.33398 6.33341C6.33398 5.41294 7.08018 4.66675 8.00065 4.66675C8.92112 4.66675 9.66732 5.41294 9.66732 6.33341C9.66732 6.90468 9.37992 7.40881 8.94178 7.70915C8.48618 8.02135 8.00065 8.44781 8.00065 9.00008" stroke="#A5A5AB" stroke-linecap="round" stroke-linejoin="round"/>
  <path d="M8.08398 11.1667H8.00065M8.16732 11.1667C8.16732 11.2587 8.09272 11.3333 8.00065 11.3333C7.90858 11.3333 7.83398 11.2587 7.83398 11.1667C7.83398 11.0746 7.90858 11 8.00065 11C8.09272 11 8.16732 11.0746 8.16732 11.1667Z" stroke="#A5A5AB" stroke-linecap="round" stroke-linejoin="round"/>
</svg>