<svg xmlns="http://www.w3.org/2000/svg" width="20" height="20" viewBox="0 0 20 20" fill="none">
  <path d="M9.16667 2.5H10.8333C13.976 2.5 15.5474 2.5 16.5237 3.47631C17.5 4.45262 17.5 6.02397 17.5 9.16667V10.8333C17.5 13.976 17.5 15.5474 16.5237 16.5237C15.5474 17.5 13.976 17.5 10.8333 17.5H9.16667C6.02397 17.5 4.45262 17.5 3.47631 16.5237C2.5 15.5474 2.5 13.976 2.5 10.8333V9.16667C2.5 6.02397 2.5 4.45262 3.47631 3.47631C4.45262 2.5 6.02397 2.5 9.16667 2.5Z" stroke="white" stroke-opacity="0.8" stroke-width="1.25" stroke-linecap="round" stroke-linejoin="round"/>
  <path d="M13.3337 6.66602H6.66699" stroke="white" stroke-opacity="0.8" stroke-width="1.25" stroke-linecap="round" stroke-linejoin="round"/>
  <path d="M13.3337 14.166H6.66699" stroke="white" stroke-opacity="0.8" stroke-width="1.25" stroke-linecap="round" stroke-linejoin="round"/>
  <path d="M13.3337 10H6.66699" stroke="white" stroke-opacity="0.8" stroke-width="1.25" stroke-linecap="round" stroke-linejoin="round"/>
  <path d="M6.66699 9.99935L6.66699 6.66602" stroke="white" stroke-opacity="0.8" stroke-width="1.25" stroke-linecap="round" stroke-linejoin="round"/>
  <path d="M13.333 9.99935L13.333 6.66602" stroke="white" stroke-opacity="0.8" stroke-width="1.25" stroke-linecap="round" stroke-linejoin="round"/>
</svg>