<svg xmlns="http://www.w3.org/2000/svg" width="20" height="20" viewBox="0 0 20 20" fill="none">
  <path d="M6.66602 4.58337H16.666" stroke="white" stroke-width="1.25" stroke-linecap="round"/>
  <path d="M6.66602 10.4166H16.666" stroke="white" stroke-width="1.25" stroke-linecap="round"/>
  <path d="M6.66602 16.25H16.666" stroke="white" stroke-width="1.25" stroke-linecap="round"/>
  <path d="M3.64648 4.58333H3.54232M3.75065 4.58333C3.75065 4.69839 3.65738 4.79167 3.54232 4.79167C3.42726 4.79167 3.33398 4.69839 3.33398 4.58333C3.33398 4.46827 3.42726 4.375 3.54232 4.375C3.65738 4.375 3.75065 4.46827 3.75065 4.58333Z" stroke="white" stroke-width="1.25" stroke-linecap="round" stroke-linejoin="round"/>
  <path d="M3.64648 10.4167H3.54232M3.75065 10.4167C3.75065 10.5318 3.65738 10.625 3.54232 10.625C3.42726 10.625 3.33398 10.5318 3.33398 10.4167C3.33398 10.3016 3.42726 10.2084 3.54232 10.2084C3.65738 10.2084 3.75065 10.3016 3.75065 10.4167Z" stroke="white" stroke-width="1.25" stroke-linecap="round" stroke-linejoin="round"/>
  <path d="M3.64648 16.25H3.54232M3.75065 16.25C3.75065 16.365 3.65738 16.4583 3.54232 16.4583C3.42726 16.4583 3.33398 16.365 3.33398 16.25C3.33398 16.1349 3.42726 16.0416 3.54232 16.0416C3.65738 16.0416 3.75065 16.1349 3.75065 16.25Z" stroke="white" stroke-width="1.25" stroke-linecap="round" stroke-linejoin="round"/>
</svg>