<svg xmlns="http://www.w3.org/2000/svg" width="20" height="20" viewBox="0 0 20 20" fill="none" id="icon">
  <path d="M12.9173 6.70037C12.883 5.7331 12.7687 5.12876 12.3877 4.65559C11.8435 3.97947 10.9127 3.7672 9.05107 3.34267L8.21661 3.15238C5.38807 2.50735 3.97379 2.18483 3.02888 2.92764C2.08398 3.67045 2.08398 5.10475 2.08398 7.97336V12.0267C2.08398 14.8952 2.08398 16.3296 3.02888 17.0723C3.97379 17.8152 5.38807 17.4927 8.21661 16.8476L9.05107 16.6573C10.9127 16.2328 11.8435 16.0205 12.3877 15.3444C12.7687 14.8712 12.883 14.2669 12.9173 13.2996" stroke="#FF4345" stroke-width="1.5" stroke-linecap="round" stroke-linejoin="round"/>
  <path d="M15.4173 7.50977C15.4173 7.50977 17.9173 9.351 17.9173 10.0097C17.9173 10.6686 15.4173 12.5097 15.4173 12.5097M17.5007 10.0097H7.08398" stroke="#FF4345" stroke-width="1.5" stroke-linecap="round" stroke-linejoin="round"/>
</svg>