<svg xmlns="http://www.w3.org/2000/svg" width="20" height="20" viewBox="0 0 20 20" fill="none">
  <path d="M8.75 6.66602H15.4167M8.75 9.99935H10.8333M15.4167 9.99935H13.3333M8.75 13.3327H10.8333M15.4167 13.3327H13.3333" stroke="white" stroke-opacity="0.8" stroke-width="1.04167" stroke-linecap="round" stroke-linejoin="round"/>
  <path d="M5.83268 6.25H4.99935C3.428 6.25 2.64232 6.25 2.15417 6.73816C1.66602 7.22631 1.66602 8.01198 1.66602 9.58333V15C1.66602 16.1506 2.59876 17.0833 3.74935 17.0833C4.89994 17.0833 5.83268 16.1506 5.83268 15V6.25Z" stroke="white" stroke-opacity="0.8" stroke-width="1.04167" stroke-linecap="round" stroke-linejoin="round"/>
  <path d="M13.3333 2.91602H9.16667C8.39167 2.91602 8.0042 2.91602 7.68628 3.0012C6.82356 3.23237 6.14968 3.90624 5.91852 4.76897C5.83333 5.08688 5.83333 5.47437 5.83333 6.24935V14.9993C5.83333 16.1499 4.90059 17.0827 3.75 17.0827H13.3333C15.6903 17.0827 16.8688 17.0827 17.6011 16.3504C18.3333 15.6182 18.3333 14.4397 18.3333 12.0827V7.91602C18.3333 5.55899 18.3333 4.38048 17.6011 3.64825C16.8688 2.91602 15.6903 2.91602 13.3333 2.91602Z" stroke="white" stroke-opacity="0.8" stroke-width="1.04167" stroke-linecap="round" stroke-linejoin="round"/>
</svg>