<svg xmlns="http://www.w3.org/2000/svg" width="16" height="16" viewBox="0 0 16 16" fill="none">
  <path fill-rule="evenodd" clip-rule="evenodd" d="M7.99935 2.16675C8.27549 2.16675 8.49935 2.39061 8.49935 2.66675V7.50008H13.3327C13.6088 7.50008 13.8327 7.72394 13.8327 8.00008C13.8327 8.27622 13.6088 8.50008 13.3327 8.50008H8.49935V13.3334C8.49935 13.6096 8.27549 13.8334 7.99935 13.8334C7.72321 13.8334 7.49935 13.6096 7.49935 13.3334V8.50008H2.66602C2.38987 8.50008 2.16602 8.27622 2.16602 8.00008C2.16602 7.72394 2.38987 7.50008 2.66602 7.50008H7.49935V2.66675C7.49935 2.39061 7.72321 2.16675 7.99935 2.16675Z" fill="white"/>
</svg>