<svg xmlns="http://www.w3.org/2000/svg" width="16" height="16" viewBox="0 0 16 16" fill="none">
  <path d="M2.84456 12.5631C2.99448 13.6767 3.91677 14.549 5.03912 14.6006C5.98353 14.644 6.94288 14.6667 7.99935 14.6667C9.05582 14.6667 10.0151 14.644 10.9595 14.6006C12.0819 14.549 13.0042 13.6767 13.1541 12.5631C13.252 11.8365 13.3327 11.0917 13.3327 10.3333C13.3327 9.57493 13.252 8.8302 13.1541 8.10353C13.0042 6.99 12.0819 6.11766 10.9595 6.06606C10.0151 6.02265 9.05582 6 7.99935 6C6.94288 6 5.98353 6.02265 5.03912 6.06606C3.91677 6.11766 2.99448 6.99 2.84456 8.10353C2.74672 8.8302 2.66602 9.57493 2.66602 10.3333C2.66602 11.0917 2.74672 11.8365 2.84456 12.5631Z" stroke="#A5A5AB" stroke-linecap="round" stroke-linejoin="round"/>
  <path d="M5 5.99992V4.33325C5 2.6764 6.34315 1.33325 8 1.33325C9.65687 1.33325 11 2.6764 11 4.33325V5.99992" stroke="#A5A5AB" stroke-linecap="round" stroke-linejoin="round"/>
  <path d="M8.08398 10.3334H8.00065M8.16732 10.3334C8.16732 10.4255 8.09272 10.5001 8.00065 10.5001C7.90858 10.5001 7.83398 10.4255 7.83398 10.3334C7.83398 10.2413 7.90858 10.1667 8.00065 10.1667C8.09272 10.1667 8.16732 10.2413 8.16732 10.3334Z" stroke="#A5A5AB" stroke-linecap="round" stroke-linejoin="round"/>
  <path d="M5.41602 10.3334H5.33268M5.49935 10.3334C5.49935 10.4255 5.42473 10.5001 5.33268 10.5001C5.24064 10.5001 5.16602 10.4255 5.16602 10.3334C5.16602 10.2413 5.24064 10.1667 5.33268 10.1667C5.42473 10.1667 5.49935 10.2413 5.49935 10.3334Z" stroke="#A5A5AB" stroke-linecap="round" stroke-linejoin="round"/>
  <path d="M10.75 10.3334H10.6667M10.8333 10.3334C10.8333 10.4255 10.7587 10.5001 10.6667 10.5001C10.5746 10.5001 10.5 10.4255 10.5 10.3334C10.5 10.2413 10.5746 10.1667 10.6667 10.1667C10.7587 10.1667 10.8333 10.2413 10.8333 10.3334Z" stroke="#A5A5AB" stroke-linecap="round" stroke-linejoin="round"/>
</svg>