<svg xmlns="http://www.w3.org/2000/svg" width="18" height="18" viewBox="0 0 18 18" fill="none">
  <path d="M4.53906 12.9602V9.5918" stroke="white" stroke-opacity="0.8" stroke-width="1.5" stroke-linecap="round"/>
  <path d="M8.75 12.9611V4.54004" stroke="white" stroke-opacity="0.8" stroke-width="1.5" stroke-linecap="round"/>
  <path d="M12.9609 12.9608V7.9082" stroke="white" stroke-opacity="0.8" stroke-width="1.5" stroke-linecap="round"/>
  <path d="M0.75 8.75C0.75 4.97877 0.75 3.09315 1.92157 1.92157C3.09315 0.75 4.97877 0.75 8.75 0.75C12.5212 0.75 14.4068 0.75 15.5785 1.92157C16.75 3.09315 16.75 4.97877 16.75 8.75C16.75 12.5212 16.75 14.4068 15.5785 15.5785C14.4068 16.75 12.5212 16.75 8.75 16.75C4.97877 16.75 3.09315 16.75 1.92157 15.5785C0.75 14.4068 0.75 12.5212 0.75 8.75Z" stroke="white" stroke-opacity="0.8" stroke-width="1.5" stroke-linejoin="round"/>
</svg>