<svg xmlns="http://www.w3.org/2000/svg" width="16" height="16" viewBox="0 0 16 16" fill="none">
  <g clip-path="url(#clip0_2205_209)">
    <path d="M6.66732 5.33321C9.61284 5.33321 12.0007 4.43778 12.0007 3.33321C12.0007 2.22864 9.61284 1.33321 6.66732 1.33321C3.7218 1.33321 1.33398 2.22864 1.33398 3.33321C1.33398 4.43778 3.7218 5.33321 6.66732 5.33321Z" stroke="white"/>
    <path d="M3.33398 7.22794C3.73504 7.34847 4.18354 7.44774 4.66732 7.5212" stroke="white" stroke-linecap="round"/>
    <path d="M3.33398 11.8946C3.73504 12.0151 4.18354 12.1144 4.66732 12.1879" stroke="white" stroke-linecap="round"/>
    <path d="M8 10.3331L8.75753 11.31C9.13867 9.88774 10.6009 9.04373 12.0235 9.42487C12.7517 9.61993 13.3283 10.0982 13.6667 10.7093M14.6667 13.6656L13.9091 12.69C13.5279 14.1123 12.0657 14.9563 10.6431 14.5751C9.93187 14.3846 9.36513 13.9239 9.02393 13.333" stroke="white" stroke-linecap="round" stroke-linejoin="round"/>
    <path d="M12.0007 3.33321L12.0007 7.33866M1.33398 3.33321L1.33398 12.6793C1.33398 13.7006 3.36978 14.5433 6.00065 14.6665" stroke="white" stroke-linecap="round" stroke-linejoin="round"/>
    <path d="M1.33398 7.99986C1.33398 9.02773 3.36978 9.87586 6.00065 9.99986" stroke="white" stroke-linecap="round"/>
  </g>
  <defs>
    <clipPath id="clip0_2205_209">
      <rect width="16" height="16" fill="white"/>
    </clipPath>
  </defs>
</svg>