<svg xmlns="http://www.w3.org/2000/svg" width="20" height="20" viewBox="0 0 20 20" fill="none">
  <g clip-path="url(#clip0_2017_713)">
    <path d="M9.99935 18.3333L8.33268 13.3333H1.66602L3.33268 18.3333H9.99935ZM9.99935 18.3333H13.3327" stroke="white" stroke-opacity="0.8" stroke-width="1.5" stroke-linecap="round" stroke-linejoin="round"/>
    <path d="M10.0007 10.8333V10.4166C10.0007 8.84525 10.0007 8.05956 9.51248 7.57141C9.02432 7.08325 8.23867 7.08325 6.66732 7.08325C5.09597 7.08325 4.31029 7.08325 3.82214 7.57141C3.33398 8.05956 3.33398 8.84525 3.33398 10.4166V10.8333" stroke="white" stroke-opacity="0.8" stroke-width="1.5" stroke-linecap="round" stroke-linejoin="round"/>
    <path d="M15.8333 10.8334C15.8333 11.7539 15.0872 12.5001 14.1667 12.5001C13.2462 12.5001 12.5 11.7539 12.5 10.8334C12.5 9.91291 13.2462 9.16675 14.1667 9.16675C15.0872 9.16675 15.8333 9.91291 15.8333 10.8334Z" stroke="white" stroke-opacity="0.8" stroke-width="1.5"/>
    <path d="M8.33333 3.33341C8.33333 4.25389 7.58714 5.00008 6.66667 5.00008C5.74619 5.00008 5 4.25389 5 3.33341C5 2.41294 5.74619 1.66675 6.66667 1.66675C7.58714 1.66675 8.33333 2.41294 8.33333 3.33341Z" stroke="white" stroke-opacity="0.8" stroke-width="1.5"/>
    <path d="M11.666 14.5833H16.666C17.5865 14.5833 18.3327 15.3294 18.3327 16.2499V16.6666C18.3327 17.5871 17.5865 18.3333 16.666 18.3333H15.8327" stroke="white" stroke-opacity="0.8" stroke-width="1.5" stroke-linecap="round"/>
  </g>
  <defs>
    <clipPath id="clip0_2017_713">
      <rect width="20" height="20" fill="white"/>
    </clipPath>
  </defs>
</svg>