<svg xmlns="http://www.w3.org/2000/svg" width="16" height="16" viewBox="0 0 16 16" fill="none">
  <path d="M9.98633 4.677C9.98633 4.677 10.3197 5.01034 10.653 5.677C10.653 5.677 11.7118 4.01034 12.653 3.677" stroke="#A5A5AB" stroke-linecap="round" stroke-linejoin="round"/>
  <path d="M6.66388 1.3476C4.99824 1.27708 3.7114 1.46896 3.7114 1.46896C2.89883 1.52706 1.34162 1.98261 1.34164 4.64307C1.34165 7.28091 1.32441 10.5329 1.34164 11.8293C1.34164 12.6214 1.83205 14.4689 3.52949 14.5679C5.59272 14.6883 9.30914 14.7139 11.0143 14.5679C11.4707 14.5422 12.9904 14.1838 13.1827 12.5304C13.382 10.8176 13.3423 9.62718 13.3423 9.34384" stroke="#A5A5AB" stroke-linecap="round" stroke-linejoin="round"/>
  <path d="M14.6672 4.67708C14.6672 6.51803 13.1734 8.01044 11.3307 8.01044C9.48794 8.01044 7.99414 6.51803 7.99414 4.67708C7.99414 2.83614 9.48794 1.34375 11.3307 1.34375C13.1734 1.34375 14.6672 2.83614 14.6672 4.67708Z" stroke="#A5A5AB" stroke-linecap="round"/>
  <path d="M4.6543 8.677H7.32094" stroke="#A5A5AB" stroke-linecap="round"/>
  <path d="M4.6543 11.3438H9.98761" stroke="#A5A5AB" stroke-linecap="round"/>
</svg>