<svg xmlns="http://www.w3.org/2000/svg" width="20" height="20" viewBox="0 0 20 20" fill="none">
  <path d="M5.00293 4.58594C6.84276 4.58594 8.33684 6.1394 8.33691 8.05859C8.33684 11.567 6.06621 14.5239 2.97266 15.4199V15.4189C3.7887 14.5295 4.39846 13.4345 4.72754 12.2178L4.89648 11.5928L4.2666 11.4453C2.78239 11.0981 1.67 9.71151 1.66992 8.05859L1.67676 7.83008C1.74266 6.77215 2.26348 5.84353 3.03711 5.25391L3.20703 5.13281L3.41504 5.00488C3.88675 4.73822 4.42742 4.58599 5.00293 4.58594Z" stroke="white" stroke-opacity="0.8" stroke-width="1.25"/>
  <path d="M15.0029 4.58594C16.8427 4.58594 18.3368 6.1394 18.3369 8.05859C18.3368 11.567 16.0662 14.5239 12.9727 15.4199V15.4189C13.7887 14.5295 14.3985 13.4345 14.7275 12.2178L14.8965 11.5928L14.2666 11.4453C12.7824 11.0981 11.67 9.71152 11.6699 8.05859C11.6699 6.90658 12.2083 5.88559 13.0371 5.25391L13.207 5.13281L13.4062 5.00977C13.88 4.74002 14.4238 4.586 15.0029 4.58594Z" stroke="white" stroke-opacity="0.8" stroke-width="1.25"/>
</svg>