<svg xmlns="http://www.w3.org/2000/svg" width="16" height="16" viewBox="0 0 16 16" fill="none">
  <path d="M10.5858 2L7.33333 2C4.81917 2 3.5621 2 2.78105 2.78105C2 3.5621 2 4.81917 2 7.33333L2 8.66667C2 11.1808 2 12.4379 2.78105 13.2189C3.5621 14 4.81917 14 7.33333 14H8.66667C11.1808 14 12.4379 14 13.2189 13.2189C14 12.4379 14 11.1808 14 8.66667L14 5.41421C14 5.10983 14 4.95764 13.9839 4.8116C13.9283 4.30887 13.7309 3.83231 13.4147 3.43753C13.3229 3.32285 13.2152 3.21523 13 3C12.7848 2.78477 12.6771 2.67715 12.5625 2.5853C12.1677 2.26911 11.6911 2.07171 11.1884 2.01614C11.0423 2 10.8902 2 10.5858 2Z" stroke="white" stroke-linecap="round" stroke-linejoin="round"/>
  <path d="M11.3337 2.33398V2.66732C11.3337 3.9244 11.3337 4.55294 10.9431 4.94346C10.5526 5.33398 9.92406 5.33398 8.66699 5.33398L7.33366 5.33398C6.07658 5.33398 5.44804 5.33398 5.05752 4.94346C4.66699 4.55294 4.66699 3.9244 4.66699 2.66732V2.33398" stroke="white" stroke-linecap="round" stroke-linejoin="round"/>
  <path d="M11.3337 13.666V11.3327C11.3337 10.0756 11.3337 9.44708 10.9431 9.05655C10.5526 8.66602 9.92406 8.66602 8.66699 8.66602L7.33366 8.66602C6.07658 8.66602 5.44804 8.66602 5.05752 9.05655C4.66699 9.44708 4.66699 10.0756 4.66699 11.3327V13.666" stroke="white" stroke-linecap="round" stroke-linejoin="round"/>
</svg>